<?xml version="1.0" encoding="UTF-8" standalone="no"?>
<!-- Created with Inkscape (http://www.inkscape.org/) -->

<svg
   width="256mm"
   height="256mm"
   viewBox="0 0 256 256"
   version="1.1"
   id="svg1"
   xml:space="preserve"
   sodipodi:docname="nasa.svg"
   inkscape:version="1.4 (86a8ad7, 2024-10-11)"
   xmlns:inkscape="http://www.inkscape.org/namespaces/inkscape"
   xmlns:sodipodi="http://sodipodi.sourceforge.net/DTD/sodipodi-0.dtd"
   xmlns="http://www.w3.org/2000/svg"
   xmlns:svg="http://www.w3.org/2000/svg"><sodipodi:namedview
     id="namedview1"
     pagecolor="#ffffff"
     bordercolor="#000000"
     borderopacity="0.25"
     inkscape:showpageshadow="2"
     inkscape:pageopacity="0.0"
     inkscape:pagecheckerboard="0"
     inkscape:deskcolor="#d1d1d1"
     inkscape:document-units="mm"
     inkscape:zoom="0.58652751"
     inkscape:cx="432.20479"
     inkscape:cy="382.76125"
     inkscape:window-width="1920"
     inkscape:window-height="1010"
     inkscape:window-x="-6"
     inkscape:window-y="-6"
     inkscape:window-maximized="1"
     inkscape:current-layer="g1" /><defs
     id="defs1" /><g
     inkscape:label="Layer 1"
     inkscape:groupmode="layer"
     id="layer1"
     transform="translate(0,-41)"><g
       id="g1"
       transform="matrix(1.0416674,0,0,1.0416674,-0.33334072,-11.133533)"><circle
         cx="114.92859"
         cy="172.92807"
         fill="#0b3d91"
         r="96.23584"
         id="circle1"
         style="stroke-width:2.3975" /><path
         id="path41"
         style="fill:#ff0000;stroke-width:2.3975"
         d="m 240.79984,84.74555 c -16.40133,20.86069 -35.79204,32.79786 -47.32884,39.56123 -13.10476,7.6816 -33.75961,16.95286 -53.79795,24.81908 0.4795,0.58738 0.95697,1.17957 1.43167,1.77655 2.23927,2.81947 4.35144,5.65784 6.33897,8.49888 15.75161,-5.80196 33.03524,-13.58906 46.74897,-23.01365 -6.5332,6.19035 -28.13232,22.3329 -41.30181,31.33074 0.67849,1.10524 1.33517,2.21058 1.97051,3.31103 19.95204,-13.35169 33.37799,-23.17911 41.20104,-29.75068 10.78878,-9.06257 35.38717,-29.34547 44.73744,-56.53318 z m -103.0492,65.13032 c -10.92289,4.24558 -21.55769,8.03036 -30.62579,10.88975 1.13415,3.05706 1.79269,4.83305 3.63414,9.79231 4.98377,-1.28721 9.56893,-2.49744 13.22995,-3.52779 6.33181,-1.78134 13.747,-4.11413 21.60122,-6.95276 -1.8269,-2.54855 -3.75462,-5.10424 -5.78291,-7.65519 -0.6785,-0.8607 -1.36612,-1.70959 -2.05661,-2.54632 z m -44.239111,15.24908 c -0.118345,0.0384 -0.19331,0.0616 -0.312467,0.10028 l -3.249248,10.61779 c 2.473984,-0.6207 4.717477,-1.19357 7.163947,-1.80946 z m -6.031063,1.97255 c -6.054698,2.01338 -12.706956,4.28568 -19.806947,6.8692 v 7.50325 c 5.115919,-1.32178 11.230511,-2.84504 17.079827,-4.31426 0.947555,-3.44349 1.872665,-6.85 2.72712,-10.05819 z m 63.940724,1.62057 c -2.70918,1.8293 -4.97986,3.28931 -6.5694,4.20995 -9.20642,5.32246 -54.08982,35.96286 -64.300792,43.01152 -10.210973,7.04866 -38.552015,33.80435 -46.895332,41.57226 l -0.287651,3.16265 c 26.900002,-24.16685 35.338998,-30.127 46.031869,-38.26173 13.234226,-10.06952 40.611456,-28.69833 49.916176,-34.66811 8.89475,-5.70607 16.91696,-10.95433 24.11667,-15.75653 -0.11748,-0.1966 -0.23501,-0.39302 -0.35248,-0.59201 -0.54184,-0.88948 -1.09565,-1.78132 -1.65906,-2.678 z m -88.566343,7.00594 c -0.310158,0.11592 -0.600476,0.21533 -0.911573,0.33222 l 0.911573,1.54714 z m -13.146392,5.1357 c -2.627445,1.06446 -5.234361,2.11843 -7.855727,3.24114 v 1.7016 c 0,0.93766 0.484612,1.8546 1.203275,2.72763 2.725898,-0.87008 5.388252,-1.68954 8.000565,-2.51138 0.389738,-0.12262 1.029905,-0.29512 1.471177,-0.42793 z m -12.699722,5.35346 c -11.328903,5.0389 -22.261342,10.57798 -31.4087299,16.49186 l 2.5893712,1.00679 c 11.3083027,-6.3879 20.2184177,-10.12505 28.0992167,-12.9104 h -2.70737 c 1.630142,-0.69368 3.189362,-2.82444 3.427512,-4.58825 z" /><path
         id="circle2"
         style="fill:#ffffff;stroke-width:2.3975"
         d="m 115.12542,83.795996 a 0.80795912,0.80795912 0 0 0 -0.80827,0.808261 0.80795912,0.80795912 0 0 0 0.80827,0.807754 0.80795912,0.80795912 0 0 0 0.80775,-0.807754 0.80795912,0.80795912 0 0 0 -0.80775,-0.808261 z m 19.29494,6.636247 -0.15345,2.692683 c -0.48429,0.107887 -0.85619,0.512927 -0.91613,1.016403 l -2.74231,0.249163 2.76156,0.148891 c 0.10069,0.462719 0.47508,0.824755 0.94499,0.911066 l 0.24917,2.752441 0.14636,-2.747883 c 0.49628,-0.08391 0.88947,-0.465021 0.98297,-0.954113 l 2.68256,-0.25676 -2.67799,-0.150916 c -0.0839,-0.517861 -0.49882,-0.922938 -1.02148,-0.990068 z m -25.17408,3.66604 a 1.078877,1.078877 0 0 0 -1.0787,1.078694 1.078877,1.078877 0 0 0 1.0787,1.078694 1.078877,1.078877 0 0 0 1.0792,-1.078694 1.078877,1.078877 0 0 0 -1.0792,-1.078694 z m 11.07662,1.438259 a 1.078877,1.078877 0 0 0 -1.0787,1.079199 1.078877,1.078877 0 0 0 1.0787,1.078694 1.078877,1.078877 0 0 0 1.0792,-1.078694 1.078877,1.078877 0 0 0 -1.0792,-1.079199 z m -23.608205,6.816028 a 0.80795912,0.80795912 0 0 0 -0.807755,0.80826 0.80795912,0.80795912 0 0 0 0.807755,0.80776 0.80795912,0.80795912 0 0 0 0.808255,-0.80776 0.80795912,0.80795912 0 0 0 -0.808255,-0.80826 z m 15.336695,0.197 a 0.80795912,0.80795912 0 0 0 -0.80775,0.80776 0.80795912,0.80795912 0 0 0 0.80775,0.80775 0.80795912,0.80795912 0 0 0 0.80827,-0.80775 0.80795912,0.80795912 0 0 0 -0.80827,-0.80776 z m -13.178804,1.38559 a 0.80795912,0.80795912 0 0 0 -0.808255,0.80775 0.80795912,0.80795912 0 0 0 0.808255,0.80826 0.80795912,0.80795912 0 0 0 0.807756,-0.80826 0.80795912,0.80795912 0 0 0 -0.807756,-0.80775 z m 2.390344,1.58209 a 0.80795912,0.80795912 0 0 0 -0.80826,0.80826 0.80795912,0.80795912 0 0 0 0.80826,0.80775 0.80795912,0.80795912 0 0 0 0.80776,-0.80775 0.80795912,0.80795912 0 0 0 -0.80776,-0.80826 z m 19.18708,1.58259 a 0.80795912,0.80795912 0 0 0 -0.80775,0.80775 0.80795912,0.80795912 0 0 0 0.80775,0.80826 0.80795912,0.80795912 0 0 0 0.80776,-0.80826 0.80795912,0.80795912 0 0 0 -0.80776,-0.80775 z m -22.783226,1.63728 a 0.80795912,0.80795912 0 0 0 -0.808264,0.80826 0.80795912,0.80795912 0 0 0 0.808264,0.80775 0.80795912,0.80795912 0 0 0 0.807746,-0.80775 0.80795912,0.80795912 0 0 0 -0.807746,-0.80826 z m -16.550106,0.57024 c -3.561221,0.10068 -6.659968,1.09304 -9.144082,3.06694 -10.290091,8.17549 -6.065581,32.06927 8.118057,57.16875 0.733636,-0.25173 1.459913,-0.49889 2.179165,-0.74344 -14.315502,-24.45455 -18.232859,-47.18059 -8.52776,-54.89337 12.196108,-9.69071 41.644472,7.77022 66.070252,38.51342 0.66366,0.83517 1.28807,1.67075 1.93051,2.50633 -1.59515,-0.12715 -3.30048,-0.20787 -5.09265,-0.19751 -6.18557,0.036 -11.50807,4.81677 -11.68788,10.86088 -0.25174,8.45119 6.509,10.75277 10.32103,12.08339 0.3932,0.13666 0.84166,0.28273 1.32836,0.43857 0.91723,-0.59666 1.62232,-1.0419 2.43643,-1.56487 0.379,-0.24351 0.77164,-0.49706 1.1263,-0.72318 1.92274,-1.22561 3.60565,-2.27995 4.67738,-2.89778 0.0753,-0.0433 0.18095,-0.11116 0.25929,-0.157 0.65433,-0.38415 1.42151,-0.8581 2.27133,-1.39875 0.30633,-0.19512 0.63384,-0.40746 0.96272,-0.62089 0.26923,-0.17455 0.58243,-0.38545 0.866,-0.57175 -0.90746,-0.53672 -1.82627,-1.0076 -2.70737,-1.42307 -4.6032,-2.15775 -9.42245,-2.55343 -10.4294,-5.4664 -0.70967,-2.05466 1.29513,-3.95573 6.18603,-3.8838 1.06847,0.0157 2.11673,0.17245 3.12011,0.41021 2.80066,3.89203 5.39154,7.76811 7.69721,11.58203 3.64352,6.03011 6.64314,11.91183 8.93898,17.48092 -0.90796,0.766 -1.89471,1.45139 -2.45871,1.92443 h 3.20671 c 6.04552,15.59657 6.33855,28.50848 -0.80928,34.82864 -3.04722,2.6948 -12.35875,3.75222 -24.55725,-1.73806 -0.17022,0.21337 0.10314,0.79088 0.31652,0.93233 10.52984,4.23399 20.61608,5.84748 25.70837,1.80289 7.01076,-5.57124 6.90725,-19.22786 0.81991,-35.8258 h 6.85907 c -1.15081,-1.29466 -2.08551,-2.55317 -1.86973,-3.99167 0.21577,-1.4385 0.86296,-4.31579 0.86296,-4.31579 h 11.93956 c 0.53944,1.4385 0.94203,2.73109 1.15061,3.95622 0.25174,1.47446 -1.25876,3.12853 -2.58938,4.27932 h 21.43411 c -1.18677,-0.2877 -2.51784,-1.69013 -3.23709,-3.56019 -0.71925,-1.87006 -12.0834,-32.51022 -12.0834,-32.51022 h -8.14895 c -2.31119,1.66387 -4.78792,3.4189 -7.43236,5.26738 -0.007,0.0671 -0.0144,0.13429 -0.0264,0.19902 -0.35483,2.15776 -6.73199,25.25539 -7.12039,26.3966 -0.14802,0.43418 -0.47207,0.88085 -0.87562,1.32127 -3.43166,-8.55635 -8.37643,-17.78291 -14.69606,-27.02811 2.1649,0.91827 3.82646,2.04593 4.49507,2.6162 v -9.27827 c -0.35963,0.35962 -1.93712,2.16992 -3.38042,1.87024 -1.31487,-0.27322 -3.07789,-0.5843 -5.13367,-0.83409 -1.06712,-1.43241 -2.15483,-2.86287 -3.28622,-4.28692 -20.43812,-25.72492 -44.556076,-42.03133 -59.988041,-41.59505 z m 53.735162,5.79304 a 1.078877,1.078877 0 0 0 -1.0787,1.0787 1.078877,1.078877 0 0 0 1.0787,1.07869 1.078877,1.078877 0 0 0 1.07869,-1.07869 1.078877,1.078877 0 0 0 -1.07869,-1.0787 z m -45.710793,5.20002 -0.150916,2.69268 c -0.486694,0.10788 -0.858219,0.51293 -0.918156,1.0164 l -2.74282,0.24917 2.761558,0.14889 c 0.100695,0.46272 0.475086,0.82474 0.944997,0.91106 l 0.249163,2.75193 0.14889,-2.74737 c 0.496284,-0.0815 0.88934,-0.46503 0.980446,-0.95412 l 2.682555,-0.25676 -2.677997,-0.15091 c -0.08152,-0.51786 -0.498306,-0.92294 -1.020961,-0.99007 z m -9.887521,1.38102 a 0.80795912,0.80795912 0 0 0 -0.807755,0.80776 0.80795912,0.80795912 0 0 0 0.807755,0.80826 0.80795912,0.80795912 0 0 0 0.80826,-0.80826 0.80795912,0.80795912 0 0 0 -0.80826,-0.80776 z m 3.452833,4.174 a 0.80795912,0.80795912 0 0 0 -0.80826,0.80775 0.80795912,0.80795912 0 0 0 0.80826,0.80826 0.80795912,0.80795912 0 0 0 0.807755,-0.80826 0.80795912,0.80795912 0 0 0 -0.807755,-0.80775 z m -49.484703,28.80365 c 1.690242,1.36657 3.811892,3.16482 3.811892,5.35853 0,1.00696 0.14385,24.20296 0,26.00108 -0.14385,1.79814 -1.762085,4.06346 -3.452327,4.78272 H 45.44888 c -1.834091,-1.47447 -3.596152,-3.20083 -3.596152,-4.99897 v -18.12509 l 13.737394,23.05214 h 15.53623 c -1.11484,-0.86309 -3.452833,-3.09248 -3.452833,-4.7108 v -26.32469 c 0,-2.19372 2.193734,-4.85511 2.877023,-5.03492 H 59.402519 c 0.899064,0.39559 3.452328,3.02101 3.452328,5.03492 v 17.90936 L 49.332685,154.65909 Z m 52.93703,0 c 0.899064,0.82714 3.488351,3.05692 3.092763,5.4664 -0.211617,1.29561 -2.534089,9.89188 -4.490001,17.00032 -0.029,0.007 -0.0581,0.0145 -0.0871,0.0217 0.01861,0.029 0.03859,0.0581 0.05722,0.0871 -1.288059,4.67999 -2.447075,8.83507 -2.60102,9.2874 -0.539439,1.58236 -3.308311,3.3443 -4.423151,4.27933 h 11.544051 c -1.150802,-1.29466 -2.086019,-2.55317 -1.870243,-3.99167 0.215775,-1.4385 0.862955,-4.31579 0.862955,-4.31579 h 0.02026 c 2.025679,2.90852 4.160018,5.80209 6.424559,8.65285 2.666032,3.35651 5.089974,6.05859 6.331881,7.73924 0.25174,0.34045 0.75038,1.09294 1.42408,2.0951 0.77679,-0.52745 1.56068,-1.05974 2.35185,-1.59678 -0.7648,-0.83193 -1.51984,-1.70671 -2.25108,-2.62735 -2.12179,-2.67082 -5.056341,-6.24812 -7.259651,-9.02203 -1.382054,-1.73966 -2.705894,-3.48895 -3.990155,-5.24103 h 8.887826 c 0.53944,1.4385 0.94253,2.73109 1.15112,3.95622 0.25173,1.47446 -1.25876,3.12853 -2.589375,4.27932 h 18.870565 c 0.39318,-0.26371 0.78412,-0.52718 1.17491,-0.7885 -0.73124,-0.64733 -1.40493,-1.61848 -1.84847,-2.77169 -0.71925,-1.87006 -12.0834,-32.51022 -12.0834,-32.51022 z m 81.850584,0 c 0.30621,0.28266 0.81011,0.72802 1.3233,1.28684 0.58552,-0.43129 1.15835,-0.8538 1.74262,-1.28684 z m -74.658278,10.06934 5.322566,13.16259 h -9.350197 z m 81.851088,0 5.32206,13.16259 h -9.3502 z m -22.63484,7.83547 c -3.20826,2.13737 -6.59954,4.37201 -10.13416,6.68435 -0.2053,0.13428 -0.39774,0.26166 -0.60417,0.39653 -0.13891,0.0908 -0.26826,0.17634 -0.40767,0.2674 1.75497,0.85111 3.15246,1.92044 3.28672,3.30141 0.24934,2.5941 -4.9627,3.84794 -9.6738,3.3085 -0.94221,-0.10789 -1.86764,-0.35485 -2.74991,-0.68571 -0.97819,0.63055 -1.96603,1.26569 -2.96819,1.90823 -0.86503,0.555 -2.51651,1.66751 -3.66806,2.42427 v 3.68934 c 0.93503,-1.83409 2.97984,-3.47628 4.56698,-3.56019 0.68329,-0.036 3.05718,2.15799 12.83899,1.61855 4.74706,-0.26133 13.9172,-5.32259 13.77335,-11.14853 -0.0863,-3.44281 -1.88415,-6.12791 -4.26008,-8.20415 z m -26.92178,8.99518 v 3.79265 c 0.8655,-0.57779 1.71922,-1.14574 2.55595,-1.69957 -1.31623,-0.91584 -2.24906,-1.77181 -2.55595,-2.09308 z M 80.457308,192.6909 a 0.80795912,0.80795912 0 0 0 -0.807755,0.80776 0.80795912,0.80795912 0 0 0 0.807755,0.80776 0.80795912,0.80795912 0 0 0 0.807754,-0.80776 0.80795912,0.80795912 0 0 0 -0.807754,-0.80776 z m 96.813542,5.60769 a 0.8103566,0.8103566 0 0 0 -0.81029,0.81029 0.8103566,0.8103566 0 0 0 0.81029,0.81029 0.8103566,0.8103566 0 0 0 0.81028,-0.81029 0.8103566,0.8103566 0 0 0 -0.81028,-0.81029 z m 12.16999,0.97083 -0.15142,2.69268 c -0.4843,0.10789 -0.85569,0.51293 -0.91563,1.0164 l -2.74282,0.24917 2.76207,0.14889 c 0.1007,0.46272 0.47458,0.82475 0.94449,0.91107 l 0.24916,2.75193 0.14889,-2.74738 c 0.49149,-0.0815 0.88441,-0.46262 0.97792,-0.95411 l 2.68306,-0.25676 -2.678,-0.15091 c -0.0815,-0.51787 -0.4988,-0.92295 -1.02146,-0.99008 z m -81.77664,3.0087 c -0.97099,0.66651 -1.95178,1.3428 -2.93476,2.02369 2.84104,4.00384 6.71071,8.92124 9.74116,10.35495 4.56485,2.16255 5.79481,-1.72615 3.56273,-3.84075 -1.74299,-1.64948 -5.96971,-4.4046 -10.36913,-8.53789 z m 71.20595,0.64265 a 1.078877,1.078877 0 0 0 -1.0792,1.0792 1.078877,1.078877 0 0 0 1.0792,1.07869 1.078877,1.078877 0 0 0 1.07869,-1.07869 1.078877,1.078877 0 0 0 -1.07869,-1.0792 z m -14.09747,0.5753 a 1.078877,1.078877 0 0 0 -1.0787,1.07921 1.078877,1.078877 0 0 0 1.0787,1.07869 1.078877,1.078877 0 0 0 1.0787,-1.07869 1.078877,1.078877 0 0 0 -1.0787,-1.07921 z m 27.90677,5.32258 a 1.078877,1.078877 0 0 0 -1.07869,1.07919 1.078877,1.078877 0 0 0 1.07869,1.0787 1.078877,1.078877 0 0 0 1.07921,-1.0787 1.078877,1.078877 0 0 0 -1.07921,-1.07919 z m -35.26214,0.27094 a 0.80795912,0.80795912 0 0 0 -0.80827,0.80825 0.80795912,0.80795912 0 0 0 0.80827,0.80776 0.80795912,0.80795912 0 0 0 0.80775,-0.80776 0.80795912,0.80795912 0 0 0 -0.80775,-0.80825 z m 7.35537,1.31165 a 1.078877,1.078877 0 0 0 -1.0787,1.07869 1.078877,1.078877 0 0 0 1.0787,1.07869 1.078877,1.078877 0 0 0 1.0787,-1.07869 1.078877,1.078877 0 0 0 -1.0787,-1.07869 z m 22.71182,0.41477 a 0.80795912,0.80795912 0 0 0 -0.80825,0.80774 0.80795912,0.80795912 0 0 0 0.80825,0.80827 0.80795912,0.80795912 0 0 0 0.80776,-0.80827 0.80795912,0.80795912 0 0 0 -0.80776,-0.80774 z m -106.720297,0.16053 a 1.078877,1.078877 0 0 0 -1.078693,1.07869 1.078877,1.078877 0 0 0 1.078693,1.0792 1.078877,1.078877 0 0 0 1.078694,-1.0792 1.078877,1.078877 0 0 0 -1.078694,-1.07869 z m -25.605559,4.81918 a 1.078877,1.078877 0 0 0 -1.078694,1.07869 1.078877,1.078877 0 0 0 1.078694,1.07869 1.078877,1.078877 0 0 0 1.0792,-1.07869 1.078877,1.078877 0 0 0 -1.0792,-1.07869 z m -10.572719,1.56537 a 0.80795912,0.80795912 0 0 0 -0.808261,0.80776 0.80795912,0.80795912 0 0 0 0.808261,0.80825 0.80795912,0.80795912 0 0 0 0.807754,-0.80825 0.80795912,0.80795912 0 0 0 -0.807754,-0.80776 z m 134.356135,1.56335 a 0.80795912,0.80795912 0 0 0 -0.80826,0.80775 0.80795912,0.80795912 0 0 0 0.80826,0.80776 0.80795912,0.80795912 0 0 0 0.80775,-0.80776 0.80795912,0.80795912 0 0 0 -0.80775,-0.80775 z m -21.66858,1.09793 a 0.80795912,0.80795912 0 0 0 -0.80826,0.80776 0.80795912,0.80795912 0 0 0 0.80826,0.80826 0.80795912,0.80795912 0 0 0 0.80776,-0.80826 0.80795912,0.80795912 0 0 0 -0.80776,-0.80776 z m 23.64416,0.39806 -0.15142,2.68965 c -0.4843,0.10788 -0.85569,0.51343 -0.91562,1.0169 l -2.74283,0.24917 2.76206,0.14889 c 0.1007,0.46272 0.47459,0.82425 0.9445,0.91056 l 0.24966,2.75243 0.1484,-2.74737 c 0.49149,-0.0791 0.88731,-0.463 0.97841,-0.95209 l 2.68255,-0.25625 -2.67799,-0.15092 c -0.0815,-0.51786 -0.49881,-0.92344 -1.02147,-0.99057 z M 70.531804,220.8828 a 0.8103566,0.8103566 0 0 0 -0.810793,0.81028 0.8103566,0.8103566 0 0 0 0.810793,0.8108 0.8103566,0.8103566 0 0 0 0.810287,-0.8108 0.8103566,0.8103566 0 0 0 -0.810287,-0.81028 z m -16.739506,0.64772 a 0.8103566,0.8103566 0 0 0 -0.810286,0.81029 0.8103566,0.8103566 0 0 0 0.810286,0.81028 0.8103566,0.8103566 0 0 0 0.810287,-0.81028 0.8103566,0.8103566 0 0 0 -0.810287,-0.81029 z m 132.485892,2.08801 a 0.80795912,0.80795912 0 0 0 -0.80775,0.80776 0.80795912,0.80795912 0 0 0 0.80775,0.80825 0.80795912,0.80795912 0 0 0 0.80827,-0.80825 0.80795912,0.80795912 0 0 0 -0.80827,-0.80776 z m -128.314435,0.80776 a 1.078877,1.078877 0 0 0 -1.078694,1.07919 1.078877,1.078877 0 0 0 1.078694,1.0787 1.078877,1.078877 0 0 0 1.0792,-1.0787 1.078877,1.078877 0 0 0 -1.0792,-1.07919 z m 29.273625,0.21573 a 1.078877,1.078877 0 0 0 -1.078694,1.0792 1.078877,1.078877 0 0 0 1.078694,1.07869 1.078877,1.078877 0 0 0 1.078694,-1.07869 1.078877,1.078877 0 0 0 -1.078694,-1.0792 z m 41.7885,0.46997 a 0.80795912,0.80795912 0 0 0 -0.80775,0.80826 0.80795912,0.80795912 0 0 0 0.80775,0.80775 0.80795912,0.80795912 0 0 0 0.80775,-0.80775 0.80795912,0.80795912 0 0 0 -0.80775,-0.80826 z m -18.98806,6.84743 a 0.8103566,0.8103566 0 0 0 -0.81028,0.81028 0.8103566,0.8103566 0 0 0 0.81028,0.81029 0.8103566,0.8103566 0 0 0 0.8103,-0.81029 0.8103566,0.8103566 0 0 0 -0.8103,-0.81028 z m -32.510204,0.34284 a 0.8103566,0.8103566 0 0 0 -0.810286,0.81029 0.8103566,0.8103566 0 0 0 0.810286,0.81029 0.8103566,0.8103566 0 0 0 0.810286,-0.81029 0.8103566,0.8103566 0 0 0 -0.810286,-0.81029 z M 88.4599,234.3138 a 0.8103566,0.8103566 0 0 0 -0.810287,0.81029 0.8103566,0.8103566 0 0 0 0.810287,0.81029 0.8103566,0.8103566 0 0 0 0.810793,-0.81029 0.8103566,0.8103566 0 0 0 -0.810793,-0.81029 z m -8.381402,6.24781 -0.150915,2.69016 c -0.486693,0.10789 -0.858725,0.51292 -0.918663,1.0164 l -2.742313,0.24916 2.761558,0.1489 c 0.100695,0.46272 0.475085,0.82715 0.944996,0.91106 l 0.249163,2.75244 0.148384,-2.74788 c 0.493886,-0.0815 0.889848,-0.46502 0.980953,-0.95411 l 2.682556,-0.25626 -2.677998,-0.15142 c -0.08392,-0.51786 -0.498811,-0.92293 -1.021467,-0.99006 z m 81.026122,0.80574 a 0.80795912,0.80795912 0 0 0 -0.80827,0.80775 0.80795912,0.80795912 0 0 0 0.80827,0.80826 0.80795912,0.80795912 0 0 0 0.80775,-0.80826 0.80795912,0.80795912 0 0 0 -0.80775,-0.80775 z" /></g></g></svg>
