<?xml version="1.0" encoding="UTF-8" standalone="no"?>
<!-- Created with Inkscape (http://www.inkscape.org/) -->

<svg
   width="256mm"
   height="256mm"
   viewBox="0 0 256 256"
   version="1.1"
   id="svg1"
   xml:space="preserve"
   sodipodi:docname="piros_12800-12822.svg"
   inkscape:version="1.4 (86a8ad7, 2024-10-11)"
   xmlns:inkscape="http://www.inkscape.org/namespaces/inkscape"
   xmlns:sodipodi="http://sodipodi.sourceforge.net/DTD/sodipodi-0.dtd"
   xmlns="http://www.w3.org/2000/svg"
   xmlns:svg="http://www.w3.org/2000/svg"><sodipodi:namedview
     id="namedview1"
     pagecolor="#ffffff"
     bordercolor="#000000"
     borderopacity="0.25"
     inkscape:showpageshadow="2"
     inkscape:pageopacity="0.0"
     inkscape:pagecheckerboard="0"
     inkscape:deskcolor="#d1d1d1"
     inkscape:document-units="mm"
     inkscape:zoom="0.58652751"
     inkscape:cx="432.20479"
     inkscape:cy="382.76125"
     inkscape:window-width="1920"
     inkscape:window-height="1010"
     inkscape:window-x="-6"
     inkscape:window-y="-6"
     inkscape:window-maximized="1"
     inkscape:current-layer="g1" /><defs
     id="defs1" /><g
     inkscape:label="Layer 1"
     inkscape:groupmode="layer"
     id="layer1"
     transform="translate(0,-41)"><g
       id="g1"
       transform="matrix(1.0416674,0,0,1.0416674,-0.33334072,-11.133533)"><path
         id="path41"
         style="fill:#ff0000;stroke-width:2.3975"
         d="m 240.79984,84.74555 c -16.40133,20.86069 -35.79204,32.79786 -47.32884,39.56123 -13.10476,7.6816 -33.75961,16.95286 -53.79795,24.81908 0.4795,0.58738 0.95697,1.17957 1.43167,1.77655 2.23927,2.81947 4.35144,5.65784 6.33897,8.49888 15.75161,-5.80196 33.03524,-13.58906 46.74897,-23.01365 -6.5332,6.19035 -28.13232,22.3329 -41.30181,31.33074 0.67849,1.10524 1.33517,2.21058 1.97051,3.31103 19.95204,-13.35169 33.37799,-23.17911 41.20104,-29.75068 10.78878,-9.06257 35.38717,-29.34547 44.73744,-56.53318 z m -103.0492,65.13032 c -10.92289,4.24558 -21.55769,8.03036 -30.62579,10.88975 1.13415,3.05706 1.79269,4.83305 3.63414,9.79231 4.98377,-1.28721 9.56893,-2.49744 13.22995,-3.52779 6.33181,-1.78134 13.747,-4.11413 21.60122,-6.95276 -1.8269,-2.54855 -3.75462,-5.10424 -5.78291,-7.65519 -0.6785,-0.8607 -1.36612,-1.70959 -2.05661,-2.54632 z m -44.239111,15.24908 c -0.118345,0.0384 -0.19331,0.0616 -0.312467,0.10028 l -3.249248,10.61779 c 2.473984,-0.6207 4.717477,-1.19357 7.163947,-1.80946 z m -6.031063,1.97255 c -6.054698,2.01338 -12.706956,4.28568 -19.806947,6.8692 v 7.50325 c 5.115919,-1.32178 11.230511,-2.84504 17.079827,-4.31426 0.947555,-3.44349 1.872665,-6.85 2.72712,-10.05819 z m 63.940724,1.62057 c -2.70918,1.8293 -4.97986,3.28931 -6.5694,4.20995 -9.20642,5.32246 -54.08982,35.96286 -64.300792,43.01152 -10.210973,7.04866 -38.552015,33.80435 -46.895332,41.57226 l -0.287651,3.16265 c 26.900002,-24.16685 35.338998,-30.127 46.031869,-38.26173 13.234226,-10.06952 40.611456,-28.69833 49.916176,-34.66811 8.89475,-5.70607 16.91696,-10.95433 24.11667,-15.75653 -0.11748,-0.1966 -0.23501,-0.39302 -0.35248,-0.59201 -0.54184,-0.88948 -1.09565,-1.78132 -1.65906,-2.678 z m -88.566343,7.00594 c -0.310158,0.11592 -0.600476,0.21533 -0.911573,0.33222 l 0.911573,1.54714 z m -13.146392,5.1357 c -2.627445,1.06446 -5.234361,2.11843 -7.855727,3.24114 v 1.7016 c 0,0.93766 0.484612,1.8546 1.203275,2.72763 2.725898,-0.87008 5.388252,-1.68954 8.000565,-2.51138 0.389738,-0.12262 1.029905,-0.29512 1.471177,-0.42793 z m -12.699722,5.35346 c -11.328903,5.0389 -22.261342,10.57798 -31.4087299,16.49186 l 2.5893712,1.00679 c 11.3083027,-6.3879 20.2184177,-10.12505 28.0992167,-12.9104 h -2.70737 c 1.630142,-0.69368 3.189362,-2.82444 3.427512,-4.58825 z" /></g></g></svg>
